<svg id="visual" viewBox="0 0 900 300" width="900" height="300" xmlns="http://www.w3.org/2000/svg" xmlns:xlink="http://www.w3.org/1999/xlink" version="1.1"><rect x="0" y="0" width="900" height="300" fill="#FA7268"></rect><path d="M0 216L25 213C50 210 100 204 150 207.3C200 210.7 250 223.3 300 229.7C350 236 400 236 450 229.7C500 223.3 550 210.7 600 206.5C650 202.3 700 206.7 750 211.5C800 216.3 850 221.7 875 224.3L900 227L900 0L875 0C850 0 800 0 750 0C700 0 650 0 600 0C550 0 500 0 450 0C400 0 350 0 300 0C250 0 200 0 150 0C100 0 50 0 25 0L0 0Z" fill="#fa7268"></path><path d="M0 176L25 179.7C50 183.3 100 190.7 150 193.7C200 196.7 250 195.3 300 195.7C350 196 400 198 450 197.3C500 196.7 550 193.3 600 191.7C650 190 700 190 750 189.2C800 188.3 850 186.7 875 185.8L900 185L900 0L875 0C850 0 800 0 750 0C700 0 650 0 600 0C550 0 500 0 450 0C400 0 350 0 300 0C250 0 200 0 150 0C100 0 50 0 25 0L0 0Z" fill="#f46767"></path><path d="M0 149L25 153.2C50 157.3 100 165.7 150 170.2C200 174.7 250 175.3 300 173.2C350 171 400 166 450 163.8C500 161.7 550 162.3 600 165.3C650 168.3 700 173.7 750 174.8C800 176 850 173 875 171.5L900 170L900 0L875 0C850 0 800 0 750 0C700 0 650 0 600 0C550 0 500 0 450 0C400 0 350 0 300 0C250 0 200 0 150 0C100 0 50 0 25 0L0 0Z" fill="#ee5c67"></path><path d="M0 124L25 126.7C50 129.3 100 134.7 150 136.5C200 138.3 250 136.7 300 134.7C350 132.7 400 130.3 450 131C500 131.7 550 135.3 600 135.2C650 135 700 131 750 132.8C800 134.7 850 142.3 875 146.2L900 150L900 0L875 0C850 0 800 0 750 0C700 0 650 0 600 0C550 0 500 0 450 0C400 0 350 0 300 0C250 0 200 0 150 0C100 0 50 0 25 0L0 0Z" fill="#e75167"></path><path d="M0 123L25 123C50 123 100 123 150 118.8C200 114.7 250 106.3 300 104.7C350 103 400 108 450 112.3C500 116.7 550 120.3 600 122.5C650 124.7 700 125.3 750 122.3C800 119.3 850 112.7 875 109.3L900 106L900 0L875 0C850 0 800 0 750 0C700 0 650 0 600 0C550 0 500 0 450 0C400 0 350 0 300 0C250 0 200 0 150 0C100 0 50 0 25 0L0 0Z" fill="#df4667"></path><path d="M0 86L25 87.5C50 89 100 92 150 91C200 90 250 85 300 80.7C350 76.3 400 72.7 450 74C500 75.3 550 81.7 600 84.7C650 87.7 700 87.3 750 85.2C800 83 850 79 875 77L900 75L900 0L875 0C850 0 800 0 750 0C700 0 650 0 600 0C550 0 500 0 450 0C400 0 350 0 300 0C250 0 200 0 150 0C100 0 50 0 25 0L0 0Z" fill="#d73b67"></path><path d="M0 62L25 61.5C50 61 100 60 150 57.2C200 54.3 250 49.7 300 49.8C350 50 400 55 450 55.5C500 56 550 52 600 51.8C650 51.7 700 55.3 750 58C800 60.7 850 62.3 875 63.2L900 64L900 0L875 0C850 0 800 0 750 0C700 0 650 0 600 0C550 0 500 0 450 0C400 0 350 0 300 0C250 0 200 0 150 0C100 0 50 0 25 0L0 0Z" fill="#cf3068"></path><path d="M0 30L25 31.2C50 32.3 100 34.7 150 36.2C200 37.7 250 38.3 300 36C350 33.7 400 28.3 450 27.2C500 26 550 29 600 29.2C650 29.3 700 26.7 750 25.2C800 23.7 850 23.3 875 23.2L900 23L900 0L875 0C850 0 800 0 750 0C700 0 650 0 600 0C550 0 500 0 450 0C400 0 350 0 300 0C250 0 200 0 150 0C100 0 50 0 25 0L0 0Z" fill="#c62368"></path></svg>