<svg id="visual" viewBox="0 0 350 900" width="350" height="900" xmlns="http://www.w3.org/2000/svg" xmlns:xlink="http://www.w3.org/1999/xlink" version="1.1"><rect x="0" y="0" width="350" height="900" fill="#FFFFFF"></rect><path d="M254 0L250.5 25C247 50 240 100 244 150C248 200 263 250 270.3 300C277.7 350 277.3 400 269.8 450C262.3 500 247.7 550 243 600C238.3 650 243.7 700 249.3 750C255 800 261 850 264 875L267 900L0 900L0 875C0 850 0 800 0 750C0 700 0 650 0 600C0 550 0 500 0 450C0 400 0 350 0 300C0 250 0 200 0 150C0 100 0 50 0 25L0 0Z" fill="#fa7268"></path><path d="M208 0L212.2 25C216.3 50 224.7 100 228 150C231.3 200 229.7 250 230 300C230.3 350 232.7 400 232 450C231.3 500 227.7 550 225.8 600C224 650 224 700 223 750C222 800 220 850 219 875L218 900L0 900L0 875C0 850 0 800 0 750C0 700 0 650 0 600C0 550 0 500 0 450C0 400 0 350 0 300C0 250 0 200 0 150C0 100 0 50 0 25L0 0Z" fill="#f46767"></path><path d="M176 0L181 25C186 50 196 100 201.2 150C206.3 200 206.7 250 204 300C201.3 350 195.7 400 193.2 450C190.7 500 191.3 550 194.8 600C198.3 650 204.7 700 206.2 750C207.7 800 204.3 850 202.7 875L201 900L0 900L0 875C0 850 0 800 0 750C0 700 0 650 0 600C0 550 0 500 0 450C0 400 0 350 0 300C0 250 0 200 0 150C0 100 0 50 0 25L0 0Z" fill="#ee5c67"></path><path d="M147 0L150.2 25C153.3 50 159.7 100 161.8 150C164 200 162 250 159.5 300C157 350 154 400 154.8 450C155.7 500 160.3 550 160.2 600C160 650 155 700 157 750C159 800 168 850 172.5 875L177 900L0 900L0 875C0 850 0 800 0 750C0 700 0 650 0 600C0 550 0 500 0 450C0 400 0 350 0 300C0 250 0 200 0 150C0 100 0 50 0 25L0 0Z" fill="#e75167"></path><path d="M145 0L145.2 25C145.3 50 145.7 100 141 150C136.3 200 126.7 250 124.7 300C122.7 350 128.3 400 133.2 450C138 500 142 550 144.5 600C147 650 148 700 144.7 750C141.3 800 133.7 850 129.8 875L126 900L0 900L0 875C0 850 0 800 0 750C0 700 0 650 0 600C0 550 0 500 0 450C0 400 0 350 0 300C0 250 0 200 0 150C0 100 0 50 0 25L0 0Z" fill="#df4667"></path><path d="M103 0L104.7 25C106.3 50 109.7 100 108.3 150C107 200 101 250 95.8 300C90.7 350 86.3 400 87.8 450C89.3 500 96.7 550 100.3 600C104 650 104 700 101.7 750C99.3 800 94.7 850 92.3 875L90 900L0 900L0 875C0 850 0 800 0 750C0 700 0 650 0 600C0 550 0 500 0 450C0 400 0 350 0 300C0 250 0 200 0 150C0 100 0 50 0 25L0 0Z" fill="#d73b67"></path><path d="M74 0L73.5 25C73 50 72 100 68.7 150C65.3 200 59.7 250 59.8 300C60 350 66 400 66.7 450C67.3 500 62.7 550 62.5 600C62.3 650 66.7 700 69.7 750C72.7 800 74.3 850 75.2 875L76 900L0 900L0 875C0 850 0 800 0 750C0 700 0 650 0 600C0 550 0 500 0 450C0 400 0 350 0 300C0 250 0 200 0 150C0 100 0 50 0 25L0 0Z" fill="#cf3068"></path><path d="M38 0L39.2 25C40.3 50 42.7 100 44.2 150C45.7 200 46.3 250 43.7 300C41 350 35 400 33.7 450C32.3 500 35.7 550 36 600C36.3 650 33.7 700 32 750C30.3 800 29.7 850 29.3 875L29 900L0 900L0 875C0 850 0 800 0 750C0 700 0 650 0 600C0 550 0 500 0 450C0 400 0 350 0 300C0 250 0 200 0 150C0 100 0 50 0 25L0 0Z" fill="#c62368"></path></svg>