<svg id="visual" viewBox="0 0 350 900" width="350" height="900" xmlns="http://www.w3.org/2000/svg" xmlns:xlink="http://www.w3.org/1999/xlink" version="1.1"><rect x="0" y="0" width="350" height="900" fill="#001220"></rect><path d="M314 0L309.5 21.5C305 43 296 86 289.8 128.8C283.7 171.7 280.3 214.3 283.2 257.2C286 300 295 343 293.3 385.8C291.7 428.7 279.3 471.3 271.7 514.2C264 557 261 600 262.3 642.8C263.7 685.7 269.3 728.3 275 771.2C280.7 814 286.3 857 289.2 878.5L292 900L0 900L0 878.5C0 857 0 814 0 771.2C0 728.3 0 685.7 0 642.8C0 600 0 557 0 514.2C0 471.3 0 428.7 0 385.8C0 343 0 300 0 257.2C0 214.3 0 171.7 0 128.8C0 86 0 43 0 21.5L0 0Z" fill="#fa7268"></path><path d="M268 0L268.2 21.5C268.3 43 268.7 86 270 128.8C271.3 171.7 273.7 214.3 273.5 257.2C273.3 300 270.7 343 271 385.8C271.3 428.7 274.7 471.3 271.7 514.2C268.7 557 259.3 600 253.7 642.8C248 685.7 246 728.3 248 771.2C250 814 256 857 259 878.5L262 900L0 900L0 878.5C0 857 0 814 0 771.2C0 728.3 0 685.7 0 642.8C0 600 0 557 0 514.2C0 471.3 0 428.7 0 385.8C0 343 0 300 0 257.2C0 214.3 0 171.7 0 128.8C0 86 0 43 0 21.5L0 0Z" fill="#f56967"></path><path d="M237 0L238.8 21.5C240.7 43 244.3 86 243.2 128.8C242 171.7 236 214.3 234.2 257.2C232.3 300 234.7 343 236.8 385.8C239 428.7 241 471.3 235.3 514.2C229.7 557 216.3 600 217.2 642.8C218 685.7 233 728.3 234.7 771.2C236.3 814 224.7 857 218.8 878.5L213 900L0 900L0 878.5C0 857 0 814 0 771.2C0 728.3 0 685.7 0 642.8C0 600 0 557 0 514.2C0 471.3 0 428.7 0 385.8C0 343 0 300 0 257.2C0 214.3 0 171.7 0 128.8C0 86 0 43 0 21.5L0 0Z" fill="#ef5f67"></path><path d="M176 0L179.2 21.5C182.3 43 188.7 86 189.5 128.8C190.3 171.7 185.7 214.3 183.8 257.2C182 300 183 343 189.3 385.8C195.7 428.7 207.3 471.3 206.8 514.2C206.3 557 193.7 600 190.5 642.8C187.3 685.7 193.7 728.3 194.8 771.2C196 814 192 857 190 878.5L188 900L0 900L0 878.5C0 857 0 814 0 771.2C0 728.3 0 685.7 0 642.8C0 600 0 557 0 514.2C0 471.3 0 428.7 0 385.8C0 343 0 300 0 257.2C0 214.3 0 171.7 0 128.8C0 86 0 43 0 21.5L0 0Z" fill="#e95667"></path><path d="M144 0L148.2 21.5C152.3 43 160.7 86 161.8 128.8C163 171.7 157 214.3 156.2 257.2C155.3 300 159.7 343 160 385.8C160.3 428.7 156.7 471.3 159.7 514.2C162.7 557 172.3 600 174.2 642.8C176 685.7 170 728.3 162.8 771.2C155.7 814 147.3 857 143.2 878.5L139 900L0 900L0 878.5C0 857 0 814 0 771.2C0 728.3 0 685.7 0 642.8C0 600 0 557 0 514.2C0 471.3 0 428.7 0 385.8C0 343 0 300 0 257.2C0 214.3 0 171.7 0 128.8C0 86 0 43 0 21.5L0 0Z" fill="#e34c67"></path><path d="M111 0L117.2 21.5C123.3 43 135.7 86 136.8 128.8C138 171.7 128 214.3 121.8 257.2C115.7 300 113.3 343 113.2 385.8C113 428.7 115 471.3 117.7 514.2C120.3 557 123.7 600 127.2 642.8C130.7 685.7 134.3 728.3 132.5 771.2C130.7 814 123.3 857 119.7 878.5L116 900L0 900L0 878.5C0 857 0 814 0 771.2C0 728.3 0 685.7 0 642.8C0 600 0 557 0 514.2C0 471.3 0 428.7 0 385.8C0 343 0 300 0 257.2C0 214.3 0 171.7 0 128.8C0 86 0 43 0 21.5L0 0Z" fill="#dc4267"></path><path d="M105 0L106 21.5C107 43 109 86 105.2 128.8C101.3 171.7 91.7 214.3 89.7 257.2C87.7 300 93.3 343 95.5 385.8C97.7 428.7 96.3 471.3 95.7 514.2C95 557 95 600 98.8 642.8C102.7 685.7 110.3 728.3 109.5 771.2C108.7 814 99.3 857 94.7 878.5L90 900L0 900L0 878.5C0 857 0 814 0 771.2C0 728.3 0 685.7 0 642.8C0 600 0 557 0 514.2C0 471.3 0 428.7 0 385.8C0 343 0 300 0 257.2C0 214.3 0 171.7 0 128.8C0 86 0 43 0 21.5L0 0Z" fill="#d53867"></path><path d="M79 0L79.2 21.5C79.3 43 79.7 86 75.2 128.8C70.7 171.7 61.3 214.3 57.8 257.2C54.3 300 56.7 343 57.7 385.8C58.7 428.7 58.3 471.3 58 514.2C57.7 557 57.3 600 61.8 642.8C66.3 685.7 75.7 728.3 75 771.2C74.3 814 63.7 857 58.3 878.5L53 900L0 900L0 878.5C0 857 0 814 0 771.2C0 728.3 0 685.7 0 642.8C0 600 0 557 0 514.2C0 471.3 0 428.7 0 385.8C0 343 0 300 0 257.2C0 214.3 0 171.7 0 128.8C0 86 0 43 0 21.5L0 0Z" fill="#ce2e68"></path><path d="M39 0L39.8 21.5C40.7 43 42.3 86 42.8 128.8C43.3 171.7 42.7 214.3 41.7 257.2C40.7 300 39.3 343 36.5 385.8C33.7 428.7 29.3 471.3 26.8 514.2C24.3 557 23.7 600 25.8 642.8C28 685.7 33 728.3 36 771.2C39 814 40 857 40.5 878.5L41 900L0 900L0 878.5C0 857 0 814 0 771.2C0 728.3 0 685.7 0 642.8C0 600 0 557 0 514.2C0 471.3 0 428.7 0 385.8C0 343 0 300 0 257.2C0 214.3 0 171.7 0 128.8C0 86 0 43 0 21.5L0 0Z" fill="#c62368"></path></svg>